<?xml version="1.0" encoding="iso-8859-1"?>
<!-- Generator: Adobe Illustrator 24.1.2, SVG Export Plug-In . SVG Version: 6.00 Build 0)  -->
<svg version="1.1" id="Logo_Respaldo" xmlns="http://www.w3.org/2000/svg" xmlns:xlink="http://www.w3.org/1999/xlink" x="0px"
	 y="0px" viewBox="0 0 575 263" style="enable-background:new 0 0 575 263;" xml:space="preserve">
<g>
	<g>
		<g>
			<g>
				<path style="fill:#008DA1;" d="M382.3,192.4c2.5,1,6.6,1.7,8.9,1.7c4.7,0,7.3-2.2,7.3-5.9c0-4.2-3.5-5.6-7.6-6.8
					c-5.6-1.6-9.4-3.6-9.4-9.1c0-5.6,4.6-8.9,10.7-8.9c3.5,0,6.5,0.7,8.5,1.5l-1,3.2c-2.3-0.8-5.4-1.5-7.6-1.5c-3.9,0-7,1.6-7,5
					c0,4,3.5,5.3,7.6,6.6c5.9,1.8,9.4,4.3,9.4,9.5c0,6.1-4.8,9.5-11,9.5c-4.3,0-7.6-0.9-9.8-2L382.3,192.4z"/>
			</g>
			<g>
				<path style="fill:#008DA1;" d="M425.6,195.8c-2.2,1-4.7,1.5-7.8,1.5c-7.3,0-11.3-2.9-11.3-12.7c0-8.3,3.7-12.7,10.5-12.7
					c6.9,0,9.8,4,9.8,10.6c0,0.4,0,1.5-0.2,2.4h-16.6c0,7.6,3,9.5,7.8,9.5c2.4,0,5.1-0.5,7.1-1.2
					C424.8,193.1,425.6,195.8,425.6,195.8z M410,181.8h13.4c-0.2-4.6-2.2-7.1-6.4-7.1C413.4,174.7,410.7,176.7,410,181.8z"/>
			</g>
			<g>
				<path style="fill:#008DA1;" d="M437.3,189.6c-0.4,0.6-0.9,2.6,0,3.7h8.8c6.4,0,7.9,4.4,7.3,7.8c-0.7,4.4-5,7.6-12.7,7.6
					c-5.3,0-9.8-2.3-9.8-6.6c0-1.7,0.3-4.7,3.9-6.6c-1-0.7-1.5-2.3-1.2-3.9c0.1-1,0.7-1.9,1.6-2.7c-2.4-1.3-4.1-3.4-4.1-7.5
					c0-6.8,3.6-9.5,10.6-9.5c2.2,0,4.1,0.4,5.5,1.3l4.2-5.4l2.5,2.8l-4.9,4.1c1.1,1.4,2,3.1,2,5.7c0,6.8-3.6,9.5-10.6,9.5
					C439.3,189.9,438.3,189.8,437.3,189.6z M434.4,201.9c0,1.7,1.2,3.9,7.1,3.9c3.4,0,7.6-1.5,8.3-4.2c0.7-2.7-0.6-5.1-4.4-5.1h-8.8
					C435.1,198,434.4,199.4,434.4,201.9z M440.8,187.2c5,0,6.8-2.4,6.8-6.9c0-3.7-1.2-5.9-6.2-5.9c-5,0-6.7,2.4-6.7,6.9
					C434.7,185.1,435.8,187.2,440.8,187.2z"/>
			</g>
			<g>
				<path style="fill:#008DA1;" d="M474.2,192.6v-20.3h3.4v24.5h-3.4v-2H474c-2.7,1.7-5.1,2.4-7.8,2.4c-5.4,0-8.1-2.9-8.1-8.4v-16.5
					h3.4v15.1c0,3.9,1.2,7,5.4,7C470.3,194.3,472.6,193.4,474.2,192.6z"/>
			</g>
			<g>
				<path style="fill:#008DA1;" d="M497.2,175.2c-3.4,0-6.5,0.5-8.1,1.2v20.3h-3.4v-24.5h3.4v2h0.2c2.7-1.7,5.1-2.4,7.8-2.4V175.2z"
					/>
			</g>
			<g>
				<path style="fill:#008DA1;" d="M511.9,171.8c6.9,0,10.3,3.7,10.3,12.2c0,8.6-2.9,13.2-11.3,13.2c-6.9,0-10.3-3.7-10.3-12.2
					C500.7,176.5,503.6,171.8,511.9,171.8z M511.2,194.6c5.9,0,7.6-4.2,7.6-10.5c0-5.6-1.2-9.6-7.1-9.6c-5.9,0-7.6,4.2-7.6,10.5
					C504.1,190.7,505.3,194.6,511.2,194.6z"/>
			</g>
			<g>
				<path style="fill:#008DA1;" d="M527.3,193.1c1.6,0.6,4.7,1.2,6.6,1.2c3.4,0,6.1-1.2,6.1-4.2c0-2.9-2.9-3.8-6.4-4.7
					c-3.9-0.9-7.1-2.4-7.1-6.9c0-4.9,3.7-6.9,9.3-6.9c2.2,0,4.7,0.6,6.4,1.2l-0.7,2.9c-2-0.7-4.2-1.2-6.1-1.2
					c-3.4,0-5.4,1.2-5.4,3.7c0,2.9,2.1,3.3,6.1,4.4c3.8,1,7.3,2.2,7.3,7.1c0,5.1-4.4,7.3-9.8,7.3c-2.2,0-5-0.6-7.1-1.2L527.3,193.1z
					"/>
			</g>
			<g>
				<path style="fill:#008DA1;" d="M221,128.7l-3.7-2.5c-0.3-0.3-0.7-0.4-1-0.4c-0.3,0-1,0.1-1.5,1.1c-2.4,4.1-8.3,11-21.3,11
					c-10.5,0-21.9-7.7-21.9-24.7c0-16.9,11.2-24.7,21.6-24.7c11.2,0,18.4,8.1,18.4,12.4v0.8c0,1.1,0.7,1.7,1.7,1.7h5.6
					c1.1,0,1.7-0.7,1.7-1.7V82.2c0-1-0.7-1.7-1.7-1.7h-5c-0.7,0-1.1,0.3-1.3,0.5c-0.2,0.2-0.4,0.6-0.3,1.2l0.1,6.1
					c-2.9-3.6-8.8-8.3-19.5-8.3c-20.1,0-30.7,16.5-30.7,32.9c0,19.5,13.1,33.7,31.1,33.7c3.4,0,20.8-0.7,28.4-15.4
					C221.7,130.8,222.3,129.6,221,128.7z"/>
			</g>
			<g>
				<path style="fill:#008DA1;" d="M248.7,100.1c-13.5,0-23,9.5-23,23.1c0,13.8,9.4,23.4,22.9,23.4c13.5,0,22.9-9.6,22.9-23.4
					C271.4,109.6,262.1,100.1,248.7,100.1z M248.7,107.6c7,0,14.2,5.4,14.2,15.7c0,9.2-6,15.9-14.3,15.9c-8.2,0-14.2-6.7-14.2-15.9
					C234.4,113,241.6,107.6,248.7,107.6z"/>
			</g>
			<g>
				<path style="fill:#008DA1;" d="M292.2,138.8h-4.2V83.4c0-1.9-0.9-2.8-3-2.8h-9.9c-1.1,0-1.7,0.7-1.7,1.7V86c0,1,0.7,1.7,1.7,1.7
					h4.3v51.1h-4.3c-1.1,0-1.7,0.6-1.7,1.7v3.8c0,1,0.7,1.7,1.7,1.7h17.1c1.1,0,1.7-0.7,1.7-1.7v-3.8
					C294,139.5,293.3,138.8,292.2,138.8z"/>
			</g>
			<g>
				<path style="fill:#008DA1;" d="M375.8,138.8h-4.4l-0.1-22.5c0-10-6-16.2-15.7-16.2c-8.5,0-12.6,4.5-14.3,6.9
					c-2.5-4.5-7.3-6.9-13.4-6.9c-4.3,0-10.1,1.2-14.1,6.7l0.1-2.8c0-2.9-1.7-3.3-3.4-3.3h-8.8c-1.1,0-1.7,0.7-1.7,1.7v3.8
					c0,1,0.7,1.7,1.7,1.7h4.3v30.9h-4.3c-1.1,0-1.7,0.6-1.7,1.7v3.8c0,1,0.7,1.7,1.7,1.7h16.7c1,0,1.7-0.7,1.7-1.7v-3.8
					c0-1-0.6-1.7-1.7-1.7h-3.8V115c0.8-1.7,3.8-7.2,11.3-7.2c6,0,9.3,3.7,9.3,10.3v20.7h-4.2c-1.1,0-1.8,0.6-1.8,1.7v3.8
					c0,1,0.7,1.7,1.8,1.7H348c1,0,1.7-0.7,1.7-1.7v-3.8c0-1-0.6-1.7-1.7-1.7h-4.4v-21.9c0-1.2-0.2-2.5-0.5-3.5
					c2.6-3.8,6-5.7,10.5-5.7c7.6,0,9.2,5.6,9.2,10.3v23.5c0,3,1.4,4.3,4.5,4.3h8.5c1.1,0,1.7-0.7,1.7-1.7v-3.8
					C377.5,139.5,376.8,138.8,375.8,138.8z"/>
			</g>
			<g>
				<path style="fill:#008DA1;" d="M420.6,132.1c-0.4-0.3-0.7-0.4-1.1-0.4c-0.4,0-0.9,0.1-1.4,0.8c-1.3,2.1-6.5,6.6-13.7,6.6
					c-6.4,0-13.5-4.5-14.2-14.3h31.6c1.1,0,1.8-0.7,1.8-1.7c0.1-7.4-1.9-13.4-5.8-17.4c-3.6-3.6-8.7-5.6-14.7-5.6
					c-10.8,0-21.7,7.9-21.7,23.1c0,13.8,9.3,23.4,22.6,23.4c13.7,0,19.5-9.6,19.5-9.7c0.5-0.8,0.4-1.7-0.4-2.3L420.6,132.1z
					 M390.4,118.2c1.3-8.1,7.4-11,12.8-11c6.8,0,11.2,4.1,11.7,11H390.4z"/>
			</g>
			<g>
				<path style="fill:#008DA1;" d="M475.9,138.8h-4.4v-22.5c-0.1-10-6.2-16.2-15.9-16.2c-6.1,0-10.8,2.3-14,6.8l0.1-4.5
					c0-1-0.7-1.7-1.7-1.7h-10.5c-1.1,0-1.7,0.7-1.7,1.7v3.8c0,1,0.7,1.7,1.7,1.7h4.3v30.9h-4.3c-1.1,0-1.7,0.6-1.7,1.7v3.8
					c0,1,0.7,1.7,1.7,1.7h17.1c1.1,0,1.7-0.7,1.7-1.7v-3.8c0-1-0.7-1.7-1.7-1.7h-4.2v-23.9c0,0,0,0,0,0c1-2.1,4.1-7.2,11.3-7.2
					c6,0,9.3,3.7,9.3,10.3v23.5c0,3,1.4,4.3,4.4,4.3h8.5c1,0,1.7-0.7,1.7-1.7v-3.8C477.7,139.5,477,138.8,475.9,138.8z"/>
			</g>
			<g>
				<path style="fill:#008DA1;" d="M526.1,138.8h-4.4v-20.2c0-12.4-6.3-18.5-19.4-18.5c-12.8,0-17.7,5.7-17.8,5.9
					c-0.8,0.7-0.9,1.5-0.3,2.2l2.5,3.1c0.4,0.6,1.2,0.7,1.9,0.5c0.2,0,0.3-0.2,0.7-0.4c1.2-0.9,5-3.7,12.7-3.7
					c7.5,0,11.1,3.4,11.1,10.6v0.5h-6.9c-16.1,0-24.6,5.1-24.6,14.8c0,7.8,6.1,13,15.3,13c7,0,12.7-2.7,17.1-8.1v3.1
					c0,3,1.4,4.3,4.4,4.3h7.8c1,0,1.7-0.6,1.7-1.7v-3.8C527.8,139.4,527.1,138.8,526.1,138.8z M513.1,125.4v6.5
					c-1.8,2.3-6.6,7.3-14,7.3c-5.1,0-8.6-2.7-8.6-6.5c0-5.2,4.7-7.3,16.2-7.3H513.1z"/>
			</g>
			<g>
				<path style="fill:#FFB600;" d="M31.5,86.7c0-1.9,1.3-4.2,2.9-5.1l37.1-21.4l9.2-5.3c1.6-0.9,4.3-0.9,5.9,0L133,81.6
					c1.6,0.9,2.9,3.2,2.9,5.1v53.5c0,1.9-1.3,4.2-2.9,5.1l-46.3,26.8c-1.6,0.9-4.3,0.9-5.9,0l-46.3-26.8c-1.6-0.9-2.9-3.2-2.9-5.1
					V86.7z"/>
			</g>
			<g>
				<path style="fill:#FFC600;" d="M70.2,71.6c1-1,2.9-1.5,4.3-1.1l31.1,8.3l7.7,2.1c1.3,0.4,2.7,1.8,3.1,3.1l10.4,38.8
					c0.4,1.4-0.1,3.3-1.1,4.3l-28.4,28.4c-1,1-2.9,1.5-4.3,1.1l-38.8-10.4c-1.4-0.4-2.8-1.8-3.1-3.1l-10.4-38.8
					c-0.4-1.3,0.2-3.3,1.1-4.3L70.2,71.6z"/>
			</g>
			<g>
				<path style="fill:#FFE800;" d="M70.3,87.4c-0.9,0-2.1,0.7-2.5,1.5l-10.7,18.6l-2.7,4.6c-0.5,0.8-0.5,2.1,0,2.9l13.4,23.2
					c0.5,0.8,1.6,1.5,2.5,1.5h26.8c0.9,0,2.1-0.7,2.5-1.5l13.4-23.2c0.5-0.8,0.5-2.1,0-2.9L99.6,88.8c-0.5-0.8-1.6-1.5-2.5-1.5H70.3
					z"/>
			</g>
			<g>
				<path style="fill:#FFF6A5;" d="M70.7,106.8c0-0.5,0.3-1,0.7-1.3l9.3-5.4l2.3-1.3c0.4-0.2,1.1-0.2,1.5,0l11.6,6.7
					c0.4,0.2,0.7,0.8,0.7,1.3v13.4c0,0.5-0.3,1-0.7,1.3l-11.6,6.7c-0.4,0.2-1.1,0.2-1.5,0l-11.6-6.7c-0.4-0.2-0.7-0.8-0.7-1.3V106.8
					z"/>
			</g>
			<g>
				<path style="fill:#FFF6B7;" d="M70.7,106.8c0-0.5,0.3-1,0.7-1.3l9.3-5.4l2.3-1.3c0.4-0.2,1.1-0.2,1.5,0l11.6,6.7
					c0.4,0.2,0.7,0.8,0.7,1.3v13.4c0,0.5-0.3,1-0.7,1.3l-11.6,6.7c-0.4,0.2-1.1,0.2-1.5,0l-11.6-6.7c-0.4-0.2-0.7-0.8-0.7-1.3V106.8
					z"/>
			</g>
		</g>
	</g>
</g>
</svg>
